<svg width="347" height="197" viewBox="0 0 347 197" fill="none" xmlns="http://www.w3.org/2000/svg">
<path d="M171.375 193.8C161.458 183.936 157.424 159.119 171.399 158.069C186.359 156.922 182.613 206.172 171.375 193.8" stroke="#F37028" stroke-miterlimit="10"/>
<path d="M180.572 188.641C168.229 176.34 151.757 154.342 167.965 150.473C185.062 146.389 177.162 200.917 162.346 189.381" stroke="#F37028" stroke-miterlimit="10"/>
<path d="M189.768 183.457C175.001 168.744 146.09 149.589 164.532 142.877C182.973 136.166 171.711 195.638 153.318 184.986" stroke="#F37028" stroke-miterlimit="10"/>
<path d="M198.965 178.274C181.772 161.149 140.423 144.836 161.097 135.282C182.468 125.418 166.26 190.36 144.313 180.567" stroke="#F37028" stroke-miterlimit="10"/>
<path d="M208.162 173.092C188.568 153.554 134.756 140.083 157.664 127.663C181.196 114.909 160.81 185.082 135.285 176.125" stroke="#F37028" stroke-miterlimit="10"/>
<path d="M217.358 167.909C195.339 145.959 129.114 135.354 154.23 120.068C179.899 104.447 155.359 179.803 126.28 171.73" stroke="#F37028" stroke-miterlimit="10"/>
<path d="M226.555 162.749C202.11 138.387 123.447 130.649 150.82 112.496C178.651 94.0096 149.932 174.548 117.275 167.335" stroke="#F37028" stroke-miterlimit="10"/>
<path d="M235.776 157.566C208.906 130.792 117.828 125.919 147.411 104.877C176.994 83.8346 144.505 169.27 108.271 162.893" stroke="#F37028" stroke-miterlimit="10"/>
<path d="M244.972 152.384C215.677 123.197 112.185 121.214 143.977 97.2821C176.129 73.0632 139.054 163.992 99.2661 158.474" stroke="#F37028" stroke-miterlimit="10"/>
<path d="M254.169 147.201C222.449 115.602 106.542 116.486 140.543 89.687C174.857 62.6258 133.604 158.713 90.2378 154.08" stroke="#F37028" stroke-miterlimit="10"/>
<path d="M263.365 142.018C229.22 108.006 100.899 111.756 137.109 82.0678C173.32 52.3793 128.153 153.411 81.209 149.637" stroke="#F37028" stroke-miterlimit="10"/>
<path d="M272.562 136.859C235.992 100.435 95.2563 107.075 133.676 74.4959C172.335 41.7024 122.702 148.18 72.2046 145.242" stroke="#F37028" stroke-miterlimit="10"/>
<path d="M281.759 131.676C242.763 92.8393 89.7097 102.417 130.242 66.9006C171.135 31.3365 117.252 142.901 63.1763 140.823" stroke="#F37028" stroke-miterlimit="10"/>
<path d="M290.956 126.492C249.535 85.2436 84.0426 97.6874 126.808 59.2811C169.862 20.8508 111.801 137.599 54.1475 136.404" stroke="#F37028" stroke-miterlimit="10"/>
<path d="M300.152 121.309C256.33 77.6484 78.3999 92.9585 123.375 51.6859C168.59 10.3895 106.35 132.344 45.1431 131.986" stroke="#F37028" stroke-miterlimit="10"/>
<path d="M309.349 116.151C263.101 70.0774 72.7568 88.2536 119.941 44.091C167.341 -0.071585 100.923 127.066 36.1143 127.568" stroke="#F37028" stroke-miterlimit="10"/>
<path d="M318.57 110.968C269.873 62.4824 67.1382 83.5247 116.531 36.496C166.068 -10.5567 95.4725 121.788 27.1099 123.149" stroke="#F37028" stroke-miterlimit="10"/>
<path d="M327.766 105.785C276.668 54.887 61.4951 78.7955 113.097 28.9006C164.795 -21.0182 90.0215 116.533 18.0811 118.731" stroke="#F37028" stroke-miterlimit="10"/>
<path d="M336.963 100.602C283.44 47.2913 55.8524 74.0659 109.664 21.3049C163.523 -31.4801 84.595 111.254 9.07666 114.335" stroke="#F37028" stroke-miterlimit="10"/>
<path d="M346.159 95.4186C290.211 39.6959 50.2093 69.3366 106.23 13.6856C162.274 -41.9416 79.144 105.976 0.0478516 109.917" stroke="#F37028" stroke-miterlimit="10"/>
</svg>
