<?xml version="1.0" encoding="UTF-8" standalone="no"?>
<!-- Created with Inkscape (http://www.inkscape.org/) -->

<svg
   width="81.30806mm"
   height="26.890335mm"
   viewBox="0 0 81.30806 26.890335"
   version="1.1"
   id="svg5"
   sodipodi:docname="logo v2.svg"
   inkscape:version="1.2.2 (732a01da63, 2022-12-09)"
   xmlns:inkscape="http://www.inkscape.org/namespaces/inkscape"
   xmlns:sodipodi="http://sodipodi.sourceforge.net/DTD/sodipodi-0.dtd"
   xmlns:xlink="http://www.w3.org/1999/xlink"
   xmlns="http://www.w3.org/2000/svg"
   xmlns:svg="http://www.w3.org/2000/svg">
  <sodipodi:namedview
     id="namedview14"
     pagecolor="#ffffff"
     bordercolor="#000000"
     borderopacity="0.25"
     inkscape:showpageshadow="2"
     inkscape:pageopacity="0.0"
     inkscape:pagecheckerboard="0"
     inkscape:deskcolor="#d1d1d1"
     inkscape:document-units="mm"
     showgrid="false"
     inkscape:zoom="2.7841925"
     inkscape:cx="161.80634"
     inkscape:cy="116.37126"
     inkscape:window-width="1920"
     inkscape:window-height="1017"
     inkscape:window-x="-8"
     inkscape:window-y="-8"
     inkscape:window-maximized="1"
     inkscape:current-layer="layer1" />
  <defs
     id="defs2">
    <radialGradient
       inkscape:collect="always"
       xlink:href="#grad2"
       id="radialGradient2442"
       cx="5179.6665"
       cy="3052.4604"
       fx="5179.6665"
       fy="3052.4604"
       r="317.20691"
       gradientUnits="userSpaceOnUse"
       gradientTransform="matrix(0.01673904,0,0,0.01673904,27.401462,95.601949)" />
    <linearGradient
       id="grad2"
       x1="2676.5388"
       y1="1889.0908"
       x2="3310.9524"
       y2="1889.0908"
       gradientUnits="userSpaceOnUse"
       gradientTransform="translate(2185.9207,846.16284)">
      <stop
         offset="0%"
         stop-color="#232941"
         stop-opacity="1.0000"
         id="stop57" />
      <stop
         offset="100%"
         stop-color="#97baa4"
         stop-opacity="1.0000"
         id="stop59" />
    </linearGradient>
  </defs>
  <g
     id="layer1"
     transform="translate(-56.014516,-130.83351)">
    <text
       xml:space="preserve"
       style="font-size:25.4px;font-family:'Malgun Gothic';-inkscape-font-specification:'Malgun Gothic';fill:#1a1a1a;stroke-width:0.264583"
       x="57.489071"
       y="153.19408"
       id="text113"><tspan
         id="tspan111"
         style="font-style:normal;font-variant:normal;font-weight:900;font-stretch:normal;font-family:Nexa;-inkscape-font-specification:'Nexa Heavy';fill:#4d4d4d;stroke-width:0.264583"
         x="57.489071"
         y="153.19408">elitt<tspan
   style="fill:none;stroke:none"
   id="tspan2004">o</tspan>r</tspan></text>
    <path
       style="fill:#000000;stroke-width:0.264583"
       d="m 56.305643,152.2258 c 0,0 80.725807,0 80.725807,0"
       id="path337" />
    <path
       style="fill:#000000;stroke-width:0.264583"
       d="m 135.6121,156.66129 c 0,0 -77.887104,0 -77.887104,0"
       id="path341" />
    <path
       d="m 115.60025,139.52577 c 3.84839,0 6.96813,3.2078 6.96813,7.16483 0,3.95702 -3.11974,7.16483 -6.96813,7.16483 -3.84034,0 -6.95481,-3.19446 -6.96783,-7.14006 0.0134,3.05333 2.49244,5.52445 5.54892,5.52445 2.56691,0 4.72637,-1.74303 5.36033,-4.10995 0.15924,-0.44516 0.24621,-0.92469 0.24621,-1.42459 0,-0.46903 -0.0765,-0.92014 -0.21744,-1.34175 -0.59487,-2.42385 -2.78181,-4.22216 -5.3891,-4.22216 -3.05648,0 -5.53555,2.47112 -5.54892,5.52446 0.013,-3.94561 3.12749,-7.14006 6.96783,-7.14006 z"
       style="fill:#4d4d4d;stroke:#0b0b0b;stroke-width:0.0251052;stroke-linecap:butt;stroke-linejoin:miter;stroke-dasharray:none;stroke-opacity:1"
       id="path55" />
    <path
       d="m 114.18183,141.38747 c 2.5313,0 4.65448,1.7207 5.23201,4.03994 -0.54462,-1.60559 -2.08254,-2.76287 -3.89485,-2.76287 -2.26766,0 -4.10596,1.81177 -4.10596,4.04671 0,2.23495 1.8383,4.04672 4.10596,4.04672 1.78233,0 3.29918,-1.11935 3.86692,-2.6836 -0.61548,2.26477 -2.71199,3.93258 -5.20408,3.93258 -2.97541,0 -5.38747,-2.37726 -5.38747,-5.30974 0,-2.93249 2.41206,-5.30974 5.38747,-5.30974 z"
       style="fill:#d4aa00;stroke:url(#radialGradient2442);stroke-width:0.0167391"
       id="path64" />
  </g>
</svg>
