<?xml version="1.0" encoding="UTF-8" standalone="no"?>
<!-- Generator: Adobe Illustrator 26.5.0, SVG Export Plug-In . SVG Version: 6.00 Build 0)  -->

<svg
   version="1.1"
   id="Layer_1"
   x="0px"
   y="0px"
   width="47.4px"
   height="47.4px"
   viewBox="0 0 47.4 47.4"
   style="enable-background:new 0 0 47.4 47.4;"
   xml:space="preserve"
   sodipodi:docname="logo-symbol.svg"
   inkscape:version="1.2.2 (732a01da63, 2022-12-09)"
   inkscape:export-filename="..\..\..\Relelo\elittor\logo-symbol.png"
   inkscape:export-xdpi="364.55695"
   inkscape:export-ydpi="364.55695"
   xmlns:inkscape="http://www.inkscape.org/namespaces/inkscape"
   xmlns:sodipodi="http://sodipodi.sourceforge.net/DTD/sodipodi-0.dtd"
   xmlns="http://www.w3.org/2000/svg"
   xmlns:svg="http://www.w3.org/2000/svg"><defs
   id="defs981"><linearGradient
     id="grad2"
     x1="2676.5388"
     y1="1889.0908"
     x2="3310.9524"
     y2="1889.0908"
     gradientUnits="userSpaceOnUse"
     gradientTransform="translate(2185.9207,846.16284)"><stop
       offset="0%"
       stop-color="#232941"
       stop-opacity="1.0000"
       id="stop57" /><stop
       offset="100%"
       stop-color="#97baa4"
       stop-opacity="1.0000"
       id="stop59" /></linearGradient></defs><sodipodi:namedview
   id="namedview979"
   pagecolor="#ffffff"
   bordercolor="#000000"
   borderopacity="0.25"
   inkscape:showpageshadow="2"
   inkscape:pageopacity="0.0"
   inkscape:pagecheckerboard="0"
   inkscape:deskcolor="#d1d1d1"
   showgrid="false"
   inkscape:zoom="12.486252"
   inkscape:cx="10.731803"
   inkscape:cy="20.342373"
   inkscape:window-width="1920"
   inkscape:window-height="1017"
   inkscape:window-x="-8"
   inkscape:window-y="-8"
   inkscape:window-maximized="1"
   inkscape:current-layer="Layer_1" />
<style
   type="text/css"
   id="style942">
	.st0{fill:#FA7024;}
</style>

<path
   d="m 22.935044,2.3630036 c 11.454242,0 20.73975,9.5476074 20.73975,21.3252014 0,11.777565 -9.285508,21.325202 -20.73975,21.325202 -11.430281,0 -20.7001034,-9.507903 -20.7388557,-21.251477 0.039883,9.087847 7.4184293,16.44282 16.5156517,16.44282 7.64008,0 14.067437,-5.187906 15.954338,-12.232742 0.473957,-1.324961 0.732812,-2.752221 0.732812,-4.24011 0,-1.396008 -0.227692,-2.738679 -0.647182,-3.993547 C 32.981253,12.524071 26.472106,7.1716306 18.71184,7.1716306 9.6146176,7.1716306 2.2359824,14.526604 2.1961883,23.61448 2.2348811,11.870876 11.504763,2.3630036 22.935044,2.3630036 Z"
   style="fill:#4d4d4d;stroke:#4d4d4d;stroke-width:0.0747224;stroke-linecap:butt;stroke-linejoin:miter;stroke-dasharray:none;stroke-opacity:1"
   id="path55" /><path
   d="m 18.713298,7.9041159 c 7.534092,0 13.853466,5.1214441 15.57241,12.0243651 -1.620992,-4.778833 -6.198414,-8.223329 -11.592524,-8.223329 -6.7494,0 -12.220865,5.392502 -12.220865,12.044515 0,6.652043 5.471465,12.044546 12.220865,12.044546 5.304878,0 9.819588,-3.331603 11.509394,-7.987393 -1.831898,6.740798 -8.071892,11.704822 -15.48928,11.704822 -8.8559274,0 -16.035116,-7.075611 -16.035116,-15.803763 0,-8.728182 7.1791886,-15.8037631 16.035116,-15.8037631 z"
   style="fill:#d4aa00;stroke:#d4aa00;stroke-width:0.0498218"
   id="path64" /></svg>
